<svg xmlns="http://www.w3.org/2000/svg" width="500.24" height="624.123" viewBox="0 0 500.24 624.123"><g transform="translate(-438 -162.392)"><path d="M-46.192-137.833H232.147C293.931-93.941,364.489-28.38,412.777,43.1v428.2H-46.192V-137.833Z" transform="translate(517.963 307.725)" fill="#fff"/><path d="M-46.192-137.833H232.147C293.931-93.941,364.489-28.38,412.777,43.1v428.2H-46.192V-137.833Z" transform="translate(517.963 307.725)" fill="none" stroke="#c8c8c8" stroke-width="15"/><path d="M232.147-137.833C299.36-88.92,363.359-28.669,412.777,43.1,380.77,9.85,336.879-7.895,284.8-5.617c6.153-61.643-17.619-101.453-52.649-132.216Z" transform="translate(517.963 307.725)" fill="#fff"/><path d="M232.147-137.833C299.36-88.92,363.359-28.669,412.777,43.1,380.77,9.85,336.879-7.895,284.8-5.617c6.153-61.643-17.619-101.453-52.649-132.216Z" transform="translate(517.963 307.725)" fill="none" stroke="#c8c8c8" stroke-width="15"/><path d="M115.929,262.786c11.188-21.929,23.9-46.636,34.08-71.44l4.023-9.792C140.74,130.969,132.769,90.365,139.89,64.11c1.917-6.845,9.845-11,18.32-11l5.165.076h.948c11.6-.178,17.068,14.583,17.688,20.322,1.023,9.558-3.4,25.733-3.4,25.733,0-6.532.256-17.087-3.867-26.195-4.8-10.538-9.383-16.835-13.493-17.833-2.074,1.387-4.092,4.257-4.782,9.777a140.623,140.623,0,0,0-1.86,22.549c0,17.8,3.5,41.285,10.39,65.5,1.3-3.749,2.442-7.351,3.352-10.726,1.412-5.319,10.389-40.578,10.389-40.578s-2.262,46.935-5.422,61.136c-.677,3-1.424,5.97-2.2,9.007,11.355,31.728,29.652,60.044,51.479,80.425,8.6,8.043,19.475,14.527,29.762,20.438,22.465-3.21,43.149-4.726,60.4-4.535,22.894.3,39.7,3.688,46.5,10.392,3.332,3.258,4.684,7.192,5.1,11.6a34.978,34.978,0,0,1-.98,6.76c.245-1.225.245-7.249-18.133-13.114-14.475-4.627-41.563-4.483-74.068-1.023,37.6,18.395,74.225,27.533,85.833,22.055,2.838-1.384,6.28-6.1,6.28-6.1s-2.046,9.3-3.516,11.62a18.307,18.307,0,0,1-9.04,6.182c-18.332,4.892-66.051-6.427-107.65-30.2-46.479,6.845-97.521,19.489-138.437,32.91C64.453,389.759,34.225,422.12,9.635,409.809L.594,405.263c-3.676-2.1-4.236-7.219-3.387-11.386,2.867-14.027,20.456-35.154,55.787-56.251,3.8-2.3,20.743-11.259,20.743-11.259S61.2,338.506,58.258,340.888C30.058,364,9.244,393.07,9.764,404.341l.1.982c23.955-3.413,59.879-52.171,106.063-142.537m14.636,7.494c-7.714,14.528-15.254,28-22.215,40.366,38.506-16.133,79.95-26.457,119.4-33.791-5.3-3.661-10.448-7.538-15.292-11.636-21.725-18.394-38.288-41.341-50.294-65.487a560.672,560.672,0,0,1-31.6,70.548" transform="translate(517.963 307.725)" fill="#d81515"/><path d="M-173.741-94.5H150.732V44.768H-173.741Z" transform="translate(611.741 306.495)" fill="#d81515"/><path d="M-65.448-74.06H-35.3q13.445,0,20.617,7.934,7.223,7.875,7.221,22.494,0,14.685-7.221,22.619-7.172,7.875-20.617,7.872H-47.283V19.225H-65.448V-74.06m18.167,17.431v26.056h10.052q5.281,0,8.162-3.373,2.879-3.438,2.878-9.687t-2.878-9.623q-2.877-3.374-8.162-3.374H-47.281m70.774.749V1.044H30q11.137,0,16.986-7.311,5.9-7.311,5.9-21.244,0-13.873-5.853-21.121T30-55.88H23.493M5.327-74.06H24.482q16.044,0,23.874,3.06A30.79,30.79,0,0,1,61.851-60.751a42.623,42.623,0,0,1,7.36,14.557A66.749,66.749,0,0,1,71.617-27.51,67.945,67.945,0,0,1,69.211-8.639,42.643,42.643,0,0,1,61.85,5.918a31.508,31.508,0,0,1-13.587,10.31q-7.927,3-23.781,3H5.327V-74.06m80.209,0h49.023v18.181H103.7v17.372h29.018v18.185H103.7V19.227H85.536V-74.06" transform="translate(565.448 309.06)" fill="#fff9f9"/></g></svg>